<svg xmlns="http://www.w3.org/2000/svg" width="100%" height="100%" viewBox="0 0 155.4 24.6">
    <g class="line aux-width">
		<g class="black">
			<polygon points="22.8,12.3 22.8,8.7 19.2,8.7 15.6,12.3 15.6,15.9 19.2,15.9"/>
			<polyline points="12.3,8.7 8.7,8.7 5.1,12.3 5.1,15.9 8.7,15.9"/>
			<polyline points="60,8.7 56.4,8.7 52.801,12.3 52.801,15.9 56.4,15.9"/>
			<line x1="81.9" y1="12.3" x2="85.5" y2="12.3"/>
			<polyline points="78.301,15.9 81.9,12.3 81.9,8.7 89.1,1.5"/>
			<polyline points="33.3,1.5 33.3,5.1 29.7,8.7 29.7,12.3 26.1,15.9"/>
			<polyline points="40.2,1.5 40.2,5.1 36.6,8.7 36.6,12.3 33,15.9"/>
			<line x1="68.1" y1="5.1" x2="71.701" y2="5.1"/>
			<polyline points="60.9,15.9 64.5,12.3 64.5,8.7 68.1,5.1 68.1,1.5"/>
			<polyline points="41.1,12.3 48.3,12.3 48.3,8.7 44.7,8.7 41.1,12.3 41.1,15.9"/>
			<polyline points="75,8.7 75,12.3 71.4,15.9"/>
		</g>
        <circle class="circle" cx="78.6" cy="1.5" r="1.5"/>
        <line class="main-color" x1="1.5" y1="20.1" x2="87.6" y2="20.1"/>


	</g>
</svg>
