<svg xmlns="http://www.w3.org/2000/svg" width="100%" height="100%" viewBox="0 0 155.4 24.6">
    <g class="line aux-width">
		<g class="black">
			<line x1="102.9" y1="5.1" x2="106.5" y2="5.1"/>
			<polyline points="95.701,15.9 99.3,12.299 99.3,8.7 102.9,5.1 102.9,1.5"/>
			<line x1="47.4" y1="5.1" x2="51" y2="5.1"/>
			<polyline points="40.2,15.9 43.8,12.299 43.8,8.7 47.4,5.1 47.4,1.5"/>
			<polyline points="122.1,8.7 118.5,12.299 122.1,15.9 125.701,15.9 125.701,12.299 129.3,8.7"/>
			<polyline points="87,8.7 83.4,12.299 87,15.9 90.6,15.9 90.6,12.299 94.201,8.7"/>
			<polygon points="22.8,12.299 22.8,8.7 19.2,8.7 15.6,12.299 15.6,15.9 19.2,15.9"/>
			<polyline points="12.3,8.7 8.7,8.7 5.1,12.299 5.1,15.9 8.7,15.9"/>
			<polyline points="106.8,12.299 114,12.299 114,8.7 110.4,8.7 106.8,12.299 106.8,15.9"/>
			<circle class="circle" cx="68.4" cy="1.5" r="1.5"/>
			<polyline points="64.8,8.7 64.8,12.299 61.2,15.9"/>
			<polyline points="26.1,15.9 29.7,12.299 29.7,8.7 33.3,8.7 36.9,12.299 33.3,15.9"/>
			<polyline points="132.6,15.9 132.6,12.299 136.2,8.7 139.8,12.299"/>
			<polyline points="50.7,15.9 50.7,12.299 54.3,8.7 57.9,12.299"/>
			<polyline points="71.7,8.7 75.3,8.7 78.9,12.299 75.3,15.9 68.1,15.9"/>
			<polyline points="68.1,15.9 71.7,12.299 71.7,8.7 78.9,1.5"/>
		</g>
		<line class="main-color" x1="1.5" y1="20.1" x2="153.9" y2="20.1"/>
	</g>
</svg>
