<svg xmlns="http://www.w3.org/2000/svg" width="117.9px" height="24.6px" viewBox="0 0 117.9 24.6">
    <g class="line aux-width">
		<g class="black">
			<polyline points="97.5,12.3 104.701,12.3 104.701,8.7 101.1,8.7 97.5,12.3 97.5,15.9"/>
			<polyline points="109.201,15.9 109.201,12.3 112.8,8.7 116.4,12.3"/>
			<line  x1="47.4" y1="5.1" x2="51" y2="5.1"/>
			<polyline points="40.2,15.9 43.8,12.3 43.8,8.7 47.4,5.1 47.4,1.5"/>
			<polyline points="87,8.7 83.4,12.3 87,15.9 90.6,15.9 90.6,12.3 94.201,8.7"/>
			<polygon points="22.8,12.3 22.8,8.7 19.2,8.7 15.6,12.3 15.6,15.9 19.2,15.9"/>
			<polyline points="12.3,8.7 8.7,8.7 5.1,12.3 5.1,15.9 8.7,15.9"/>
			<circle class="circle" cx="68.4" cy="1.5" r="1.8"/>
			<polyline points="64.8,8.7 64.8,12.3 61.201,15.9"/>
			<polyline points="26.1,15.9 29.7,12.3 29.7,8.7 33.3,8.7 36.9,12.3 33.3,15.9"/>
			<polyline points="50.7,15.9 50.7,12.3 54.3,8.7 57.9,12.3"/>
			<polyline points="71.701,8.7 75.3,8.7 78.9,12.3 75.3,15.9 68.1,15.9"/>
			<polyline points="68.1,15.9 71.701,12.3 71.701,8.7 78.9,1.5"/>
		</g>
		<line class="main-color" x1="1.5" y1="20.1" x2="116.4" y2="20.1"/>
	</g>
</svg>
