<svg xmlns="http://www.w3.org/2000/svg" width="74.7px" height="24.6px" viewBox="0 0 74.7 24.6">
    <g class="line aux-width">
		<line class="main-color" x1="73.2" y1="20.1" x2="1.5" y2="20.1"/>
		<g class="black">
			<polygon points="5.1,15.899 5.1,12.3 8.7,8.699 12.3,12.3 8.7,15.899"/>
			<polygon points="66,15.899 66,12.3 69.6,8.699 73.2,12.3 69.6,15.899"/>
			<polyline points="61.5,8.699 57.9,8.699 54.3,12.3 54.3,15.899 57.9,15.899 61.5,12.3 61.5,5.1 65.1,1.5"/>
			<polyline points="28.5,12.3 35.7,12.3 35.7,8.699 32.1,8.699 28.5,12.3 28.5,15.899"/>
			<polyline points="20.4,15.899 16.8,15.899 16.8,12.3 20.4,8.699 24,8.699 24,12.3 20.4,15.899 20.4,19.5 16.8,23.1 13.2,23.1"/>
			<polyline points="39,15.899 42.6,12.3 42.6,8.699 46.2,8.699 49.8,12.3 46.2,15.899"/>
		</g>
	</g>
</svg>
