<svg xmlns="http://www.w3.org/2000/svg" width="47.7px" height="24.6px" viewBox="0 0 47.7 24.6">
    <g class="line aux-width">
        <line class="main-color" x1="1.5" y1="20.101" x2="46.2" y2="20.101"/>
        <g class="black">
            <polygon points="34.799,12.3 34.799,8.7 31.2,8.7 27.6,12.3 27.6,15.9 31.2,15.9"/>
            <polyline points="8.7,8.7 12.3,8.7 15.9,12.3 12.3,15.9 5.1,15.9"/>
            <polyline points="42.6,15.9 39,15.9 39,12.3 42.6,8.7 46.2,8.7 46.2,12.3 42.6,15.9 42.6,19.5 39,23.101 35.4,23.101"/>
            <polyline points="26.4,1.5 26.4,5.1 22.8,8.7 22.8,12.3 19.2,15.9"/>
            <polyline points="5.1,15.9 8.7,12.3 8.7,8.7 15.9,1.5"/>
        </g>
    </g>
</svg>
