<svg xmlns="http://www.w3.org/2000/svg" width="100%" height="100%" viewBox="0 0 155.4 24.6">
    <g class="line aux-width">
		<line class="main-color" x1="1.5" y1="20.1" x2="94.5" y2="20.1"/>
		<g class="black">
			<polyline points="83.701,15.899 87.301,15.899 87.301,12.3 90.9,8.7 94.5,8.7"/>
			<polygon points="57,12.3 57,8.7 53.4,8.7 49.801,12.3 49.801,15.899 53.4,15.899"/>
			<polygon points="80.4,12.3 80.4,8.7 76.801,8.7 73.201,12.3 73.201,15.899 76.801,15.899"/>
			<polyline points="26.4,15.899 30,15.899 33.601,12.3 33.601,8.7 30,8.7 26.4,12.3 26.4,15.899 22.8,19.5 22.8,23.1"/>
			<polyline points="61.5,15.899 65.101,15.899 68.701,12.3 68.701,8.7 65.101,8.7 61.5,12.3 61.5,15.899 57.9,19.5 57.9,23.1"/>
			<polyline points="38.101,15.899 38.101,12.3 41.701,8.7 45.3,12.3"/>
			<line x1="12.3" y1="1.5" x2="15.9" y2="5.1"/>
			<polygon points="12.3,8.7 8.701,8.7 5.101,12.3 5.101,15.899 8.701,15.899 12.3,12.3"/>
		</g>
	</g>
</svg>
